<?xml version="1.0" encoding="UTF-8" standalone="no"?>
<!DOCTYPE svg PUBLIC "-//W3C//DTD SVG 1.1//EN" "http://www.w3.org/Graphics/SVG/1.1/DTD/svg11.dtd">
<svg width="100%" height="100%" viewBox="0 0 1600 1600" version="1.1" xmlns="http://www.w3.org/2000/svg" xmlns:xlink="http://www.w3.org/1999/xlink" xml:space="preserve" xmlns:serif="http://www.serif.com/" style="fill-rule:evenodd;clip-rule:evenodd;stroke-linejoin:round;stroke-miterlimit:1.41421;">
    <rect id="BlockFantasy-Temp-Favicon" serif:id="BlockFantasy Temp Favicon" x="0" y="0" width="1600" height="1600" style="fill:none;"/>
    <clipPath id="_clip1">
        <rect id="BlockFantasy-Temp-Favicon1" serif:id="BlockFantasy Temp Favicon" x="0" y="0" width="1600" height="1600"/>
    </clipPath>
    <g clip-path="url(#_clip1)">
        <g transform="matrix(1.18287,0,0,1.18287,-269.633,-292.587)">
            <circle cx="904.272" cy="923.677" r="676.323" style="fill:rgb(176,242,252);"/>
        </g>
        <g transform="matrix(1.10886,0,0,1.10886,-161.066,-85.4216)">
            <g transform="matrix(1,0,0,0.943317,0,45.3463)">
                <g transform="matrix(1.05292,0.607906,-0.647466,1.12144,698.849,-464.974)">
                    <path d="M682,800L1071,1014L682,1228L293,1014L682,800Z" style="fill:white;"/>
                </g>
                <g id="Cutout-Diamong" serif:id="Cutout Diamong" transform="matrix(1,0,0,1,82.4128,-0.931075)">
                    <g transform="matrix(-1.05292,0.607906,0.647466,1.12144,739.563,-1040.75)">
                        <path d="M682,800L1071,1014L682,1228L293,1014L682,800Z" style="fill:white;"/>
                    </g>
                    <g transform="matrix(-0.571206,0.329786,0.351247,0.608378,711.398,-330.82)">
                        <path d="M682,800L1071,1014L682,1228L293,1014L682,800Z" style="fill:rgb(47,217,212);"/>
                    </g>
                </g>
            </g>
            <g transform="matrix(0.921659,0,0,0.84074,-92.0424,143.888)">
                <path d="M1383,380.796L1600,784.121L1383,1180L1166,784.121L1383,380.796Z" style="fill:rgb(47,217,212);"/>
                <path d="M1600,784.121L1383,1180L1166,784.121L1383,380.796L1600,784.121ZM1211.55,783.917L1383,1096.7L1554.45,783.917L1383,465.253L1211.55,783.917Z" style="fill:white;"/>
            </g>
        </g>
    </g>
</svg>
