<?xml version="1.0" encoding="UTF-8" standalone="no"?>
<!DOCTYPE svg PUBLIC "-//W3C//DTD SVG 1.1//EN" "http://www.w3.org/Graphics/SVG/1.1/DTD/svg11.dtd">
<svg width="100%" height="100%" viewBox="0 0 800 800" version="1.1" xmlns="http://www.w3.org/2000/svg" xmlns:xlink="http://www.w3.org/1999/xlink" xml:space="preserve" style="fill-rule:evenodd;clip-rule:evenodd;stroke-linejoin:round;stroke-miterlimit:1.41421;">
    <g transform="matrix(1.26382,0,0,1.26382,-154.186,-77.0932)">
        <g transform="matrix(1,0,0,0.716981,0,33.9057)">
            <rect x="212" y="141" width="349" height="106"/>
        </g>
        <g transform="matrix(0.856734,0,0,0.603774,55.3725,152.868)">
            <rect x="212" y="141" width="349" height="106"/>
        </g>
        <g transform="matrix(0.702006,0,0,0.301887,115.175,375.434)">
            <rect x="212" y="141" width="349" height="106"/>
        </g>
        <g transform="matrix(0.862464,0,0,0.226415,53.1576,454.075)">
            <rect x="212" y="141" width="349" height="106"/>
        </g>
        <g transform="matrix(0.535817,0,0,0.358491,180.407,605.453)">
            <path d="M561,162.2C561,150.499 554.644,141 546.816,141L226.184,141C218.356,141 212,150.499 212,162.2L212,225.8C212,237.501 218.356,247 226.184,247L546.816,247C554.644,247 561,237.501 561,225.8L561,162.2Z"/>
        </g>
        <g transform="matrix(1,0,0,0.254717,0,72.0849)">
            <rect x="212" y="141" width="349" height="106" style="fill:rgb(48,44,44);"/>
        </g>
        <g transform="matrix(1,0,0,0.0754717,0,89.3585)">
            <rect x="212" y="141" width="349" height="106" style="fill:rgb(213,42,42);"/>
        </g>
        <g transform="matrix(1,0,0,0.122642,0,69.7075)">
            <rect x="212" y="141" width="349" height="106"/>
        </g>
        <g transform="matrix(0.856734,0,0,0.254717,55.3725,175.085)">
            <rect x="212" y="141" width="349" height="106" style="fill:rgb(48,44,44);"/>
        </g>
        <g transform="matrix(0.862464,0,0,0.339623,53.1576,402.113)">
            <path d="M561,220.5C561,176.623 546.972,141 529.694,141L243.306,141C226.028,141 212,176.623 212,220.5L212,247L561,247L561,220.5Z" style="fill:rgb(48,44,44);"/>
        </g>
        <g transform="matrix(1.57307,0,0,1.50943,-169.49,297.17)">
            <path d="M561,162.2C561,150.499 551.885,141 540.658,141L232.342,141C221.115,141 212,150.499 212,162.2L212,225.8C212,237.501 221.115,247 232.342,247L540.658,247C551.885,247 561,237.501 561,225.8L561,162.2Z" style="fill:rgb(48,44,44);"/>
        </g>
        <g transform="matrix(1.10185,0,0,1.01653,-60.5,25.3884)">
            <path d="M702,479.647C702,435.689 669.075,400 628.52,400L594,400L594,521L702,521L702,479.647Z" style="fill:rgb(48,44,44);"/>
        </g>
        <g transform="matrix(1.48138,0,0,1.20755,-134.052,355.736)">
            <path d="M561,162.2C561,150.499 553.257,141 543.719,141L229.281,141C219.743,141 212,150.499 212,162.2L212,225.8C212,237.501 219.743,247 229.281,247L543.719,247C553.257,247 561,237.501 561,225.8L561,162.2Z" style="fill:rgb(27,27,27);"/>
        </g>
        <g transform="matrix(0.948424,0,0,0.245283,19.9341,26.4151)">
            <rect x="212" y="141" width="349" height="106" style="fill:rgb(48,44,44);"/>
        </g>
        <g transform="matrix(1,0,0,1,-1,0)">
            <rect x="342" y="255" width="91" height="30" style="fill:rgb(139,134,134);"/>
        </g>
        <g transform="matrix(1.76923,0,0,2.09556,-99.0769,24.2)">
            <rect x="342" y="255" width="91" height="30" style="fill:rgb(139,134,134);"/>
        </g>
        <g transform="matrix(0.0879121,0,0,1,462.934,0)">
            <rect x="342" y="255" width="91" height="30" style="fill:rgb(168,167,167);"/>
        </g>
        <g transform="matrix(0.0879121,0,0,1,444.934,0)">
            <rect x="342" y="255" width="91" height="30" style="fill:rgb(168,167,167);"/>
        </g>
        <g transform="matrix(0.856734,0,0,0.754717,55.3725,195.585)">
            <rect x="212" y="141" width="349" height="106" style="fill:rgb(85,85,85);"/>
        </g>
        <g transform="matrix(0.0229226,0,0,0.754717,228.14,195.585)">
            <path d="M561,146.3C561,143.375 482.809,141 386.5,141C290.191,141 212,143.375 212,146.3L212,241.7C212,244.625 290.191,247 386.5,247C482.809,247 561,244.625 561,241.7L561,146.3Z" style="fill:rgb(48,44,44);"/>
        </g>
        <g transform="matrix(0.0229226,0,0,0.754717,286.14,195.585)">
            <path d="M561,146.3C561,143.375 482.809,141 386.5,141C290.191,141 212,143.375 212,146.3L212,241.7C212,244.625 290.191,247 386.5,247C482.809,247 561,244.625 561,241.7L561,146.3Z" style="fill:rgb(48,44,44);"/>
        </g>
        <g transform="matrix(0.0229226,0,0,0.754717,256.14,195.585)">
            <path d="M561,146.3C561,143.375 482.809,141 386.5,141C290.191,141 212,143.375 212,146.3L212,241.7C212,244.625 290.191,247 386.5,247C482.809,247 561,244.625 561,241.7L561,146.3Z" style="fill:rgb(48,44,44);"/>
        </g>
        <g transform="matrix(0.0229226,0,0,0.754717,346.14,195.585)">
            <path d="M561,146.3C561,143.375 482.809,141 386.5,141C290.191,141 212,143.375 212,146.3L212,241.7C212,244.625 290.191,247 386.5,247C482.809,247 561,244.625 561,241.7L561,146.3Z" style="fill:rgb(48,44,44);"/>
        </g>
        <g transform="matrix(0.0229226,0,0,0.754717,316.14,195.585)">
            <path d="M561,146.3C561,143.375 482.809,141 386.5,141C290.191,141 212,143.375 212,146.3L212,241.7C212,244.625 290.191,247 386.5,247C482.809,247 561,244.625 561,241.7L561,146.3Z" style="fill:rgb(48,44,44);"/>
        </g>
        <g transform="matrix(0.0229226,0,0,0.754717,406.14,195.585)">
            <path d="M561,146.3C561,143.375 482.809,141 386.5,141C290.191,141 212,143.375 212,146.3L212,241.7C212,244.625 290.191,247 386.5,247C482.809,247 561,244.625 561,241.7L561,146.3Z" style="fill:rgb(48,44,44);"/>
        </g>
        <g transform="matrix(0.0229226,0,0,0.754717,375.623,195.585)">
            <path d="M561,146.3C561,143.375 482.809,141 386.5,141C290.191,141 212,143.375 212,146.3L212,241.7C212,244.625 290.191,247 386.5,247C482.809,247 561,244.625 561,241.7L561,146.3Z" style="fill:rgb(48,44,44);"/>
        </g>
        <g transform="matrix(0.0229226,0,0,0.754717,436.14,195.585)">
            <path d="M561,146.3C561,143.375 482.809,141 386.5,141C290.191,141 212,143.375 212,146.3L212,241.7C212,244.625 290.191,247 386.5,247C482.809,247 561,244.625 561,241.7L561,146.3Z" style="fill:rgb(48,44,44);"/>
        </g>
        <g transform="matrix(0.0229226,0,0,0.754717,496.14,195.585)">
            <path d="M561,146.3C561,143.375 482.809,141 386.5,141C290.191,141 212,143.375 212,146.3L212,241.7C212,244.625 290.191,247 386.5,247C482.809,247 561,244.625 561,241.7L561,146.3Z" style="fill:rgb(48,44,44);"/>
        </g>
        <g transform="matrix(0.0229226,0,0,0.754717,527.14,195.585)">
            <path d="M561,146.3C561,143.375 482.809,141 386.5,141C290.191,141 212,143.375 212,146.3L212,241.7C212,244.625 290.191,247 386.5,247C482.809,247 561,244.625 561,241.7L561,146.3Z" style="fill:rgb(48,44,44);"/>
        </g>
        <g transform="matrix(0.0229226,0,0,0.754717,466.14,195.585)">
            <path d="M561,146.3C561,143.375 482.809,141 386.5,141C290.191,141 212,143.375 212,146.3L212,241.7C212,244.625 290.191,247 386.5,247C482.809,247 561,244.625 561,241.7L561,146.3Z" style="fill:rgb(48,44,44);"/>
        </g>
        <g transform="matrix(0.833811,0,0,0.169811,64.2321,358.057)">
            <rect x="212" y="141" width="349" height="106"/>
        </g>
        <g transform="matrix(0.770774,0,0,0.169811,88.596,376.057)">
            <rect x="212" y="141" width="349" height="106" style="fill:rgb(48,44,44);"/>
        </g>
        <g transform="matrix(0.0659341,0,0,0.2,425.451,337)">
            <rect x="342" y="255" width="91" height="30" style="fill:rgb(168,167,167);"/>
        </g>
        <g transform="matrix(0.0659341,0,0,0.2,405.451,337)">
            <rect x="342" y="255" width="91" height="30" style="fill:rgb(168,167,167);"/>
        </g>
        <g transform="matrix(1,0,0,1,-3,8)">
            <circle cx="520" cy="634" r="4" style="fill:rgb(168,167,167);"/>
        </g>
        <g transform="matrix(1,0,0,1,32,8)">
            <circle cx="520" cy="634" r="4" style="fill:rgb(168,167,167);"/>
        </g>
        <g transform="matrix(1,0,0,1,66.5,8)">
            <circle cx="520" cy="634" r="4" style="fill:rgb(168,167,167);"/>
        </g>
        <g transform="matrix(1,0,0,1,102,8)">
            <circle cx="520" cy="634" r="4" style="fill:rgb(168,167,167);"/>
        </g>
        <g transform="matrix(0.0659341,0,0,0.2,445.451,337)">
            <rect x="342" y="255" width="91" height="30" style="fill:rgb(168,167,167);"/>
        </g>
        <g transform="matrix(0.0659341,0,0,0.2,465.451,337)">
            <rect x="342" y="255" width="91" height="30" style="fill:rgb(168,167,167);"/>
        </g>
        <g transform="matrix(0.0659341,0,0,0.2,485.451,337)">
            <rect x="342" y="255" width="91" height="30" style="fill:rgb(168,167,167);"/>
        </g>
        <g transform="matrix(1.94505,0,0,0.2,-367.209,385)">
            <rect x="342" y="255" width="91" height="30" style="fill:rgb(168,167,167);"/>
        </g>
        <g transform="matrix(0.868132,0,0,0.2,50.0989,375)">
            <rect x="342" y="255" width="91" height="30" style="fill:rgb(168,167,167);"/>
        </g>
        <circle cx="237" cy="590" r="35" style="fill:rgb(4,0,0);"/>
        <g transform="matrix(0.8,0,0,0.8,47.4,118)">
            <circle cx="237" cy="590" r="35" style="fill:rgb(48,44,44);"/>
        </g>
        <g transform="matrix(0.457143,0,0,0.457143,128.657,320.286)">
            <circle cx="237" cy="590" r="35" style="fill:rgb(85,85,85);"/>
        </g>
        <g transform="matrix(0.297994,0,0,1.01887,271.325,418.34)">
            <path d="M561,161.415C561,150.148 529.724,141 491.2,141L281.8,141C243.276,141 212,150.148 212,161.415L212,226.585C212,237.852 243.276,247 281.8,247L491.2,247C529.724,247 561,237.852 561,226.585L561,161.415Z" style="fill:rgb(48,44,44);"/>
        </g>
        <g transform="matrix(0.205587,0,0,0.650943,307.04,484.717)">
            <path d="M561,162.2C561,150.499 530.922,141 493.875,141L279.125,141C242.078,141 212,150.499 212,162.2L212,225.8C212,237.501 242.078,247 279.125,247L493.875,247C530.922,247 561,237.501 561,225.8L561,162.2Z" style="fill:rgb(168,167,167);"/>
        </g>
        <g transform="matrix(0.0701446,0.251503,-0.325438,0.0907652,397.048,533.702)">
            <path d="M141.728,505.175C141.909,503.792 142,502.397 142,501C142,498.553 141.721,496.116 141.168,493.742L114,501L141.728,505.175Z" style="fill:rgb(71,169,105);"/>
        </g>
        <g transform="matrix(0.571429,0,0,0.571429,510.571,144.857)">
            <circle cx="237" cy="590" r="35" style="fill:rgb(4,0,0);"/>
        </g>
    </g>
</svg>
