<?xml version="1.0" encoding="UTF-8" standalone="no"?>
<!DOCTYPE svg PUBLIC "-//W3C//DTD SVG 1.1//EN" "http://www.w3.org/Graphics/SVG/1.1/DTD/svg11.dtd">
<svg width="100%" height="100%" viewBox="0 0 800 135" version="1.1" xmlns="http://www.w3.org/2000/svg" xmlns:xlink="http://www.w3.org/1999/xlink" xml:space="preserve" style="fill-rule:evenodd;clip-rule:evenodd;stroke-linejoin:round;stroke-miterlimit:1.41421;">
    <g transform="matrix(1,0,0,1,17.8337,-205.298)">
        <path d="M116.684,320.598L87.672,320.598L81.08,338.298L78.679,338.298L100.855,279.054L103.541,279.054L125.717,338.298L123.316,338.298L116.684,320.598ZM88.485,318.401L115.87,318.401L102.198,281.698L88.485,318.401Z" style="fill:rgb(102,102,102);fill-rule:nonzero;"/>
        <path d="M170.72,324.098C170.72,321.575 170.13,319.439 168.95,317.689C167.77,315.939 165.912,314.393 163.376,313.05C160.839,311.707 157.008,310.331 151.881,308.92C146.754,307.51 142.909,306.085 140.345,304.648C137.782,303.21 135.903,301.542 134.709,299.643C133.516,297.744 132.919,295.438 132.919,292.725C132.919,288.412 134.737,284.92 138.372,282.248C142.007,279.576 146.74,278.24 152.572,278.24C156.37,278.24 159.781,278.979 162.806,280.457C165.831,281.936 168.17,284.011 169.825,286.683C171.48,289.355 172.307,292.373 172.307,295.737L170.11,295.737C170.11,291.315 168.482,287.66 165.227,284.771C161.972,281.882 157.754,280.437 152.572,280.437C147.364,280.437 143.153,281.597 139.938,283.916C136.724,286.235 135.116,289.145 135.116,292.644C135.116,296.198 136.513,299.06 139.307,301.23C142.101,303.4 146.713,305.319 153.142,306.987C159.571,308.656 164.278,310.588 167.262,312.786C171.059,315.58 172.958,319.323 172.958,324.016C172.958,327 172.117,329.638 170.435,331.93C168.754,334.223 166.366,335.993 163.274,337.24C160.181,338.488 156.709,339.112 152.857,339.112C148.571,339.112 144.719,338.4 141.301,336.976C137.883,335.552 135.313,333.524 133.59,330.893C131.868,328.262 131.007,325.155 131.007,321.575L133.204,321.575C133.204,326.43 135.021,330.201 138.656,332.887C142.291,335.572 147.025,336.915 152.857,336.915C158.038,336.915 162.311,335.728 165.675,333.355C169.038,330.981 170.72,327.895 170.72,324.098Z" style="fill:rgb(102,102,102);fill-rule:nonzero;"/>
        <path d="M226.75,338.298L224.553,338.298L224.553,308.92L186.711,308.92L186.711,338.298L184.514,338.298L184.514,279.054L186.711,279.054L186.711,306.723L224.553,306.723L224.553,279.054L226.75,279.054L226.75,338.298Z" style="fill:rgb(102,102,102);fill-rule:nonzero;"/>
        <path d="M262.965,338.298L262.965,279.054L278.549,279.054C284.924,279.054 289.746,280.349 293.014,282.94C296.283,285.53 297.917,289.294 297.917,294.231C297.917,297.812 297.009,300.782 295.191,303.142C293.374,305.502 290.81,307.008 287.501,307.659C291.244,308.147 294.364,309.768 296.86,312.521C299.355,315.275 300.603,318.428 300.603,321.982C300.603,327.027 298.969,331.008 295.7,333.924C292.431,336.84 287.881,338.298 282.048,338.298L262.965,338.298ZM265.162,309.042L265.162,336.101L282.292,336.101C287.311,336.101 291.251,334.86 294.113,332.378C296.975,329.896 298.406,326.458 298.406,322.063C298.406,318.32 297.022,315.234 294.255,312.806C291.488,310.378 287.786,309.124 283.147,309.042L265.162,309.042ZM265.162,306.845L279.363,306.845C284.761,306.845 288.83,305.807 291.57,303.732C294.31,301.657 295.68,298.436 295.68,294.068C295.68,285.659 290.132,281.387 279.037,281.251L265.162,281.251L265.162,306.845Z" style="fill:rgb(102,102,102);fill-rule:nonzero;"/>
        <path d="M355.453,338.298L353.256,338.298L353.256,308.92L315.414,308.92L315.414,338.298L313.217,338.298L313.217,279.054L315.414,279.054L315.414,306.723L353.256,306.723L353.256,279.054L355.453,279.054L355.453,338.298Z" style="fill:rgb(102,102,102);fill-rule:nonzero;"/>
        <rect x="373.357" y="279.054" width="2.197" height="59.245" style="fill:rgb(102,102,102);fill-rule:nonzero;"/>
        <path d="M396.591,279.054L420.964,335.084L445.419,279.054L448.634,279.054L448.634,338.298L446.436,338.298L446.436,282.309L421.86,338.298L420.11,338.298L395.655,282.594L395.655,338.298L393.458,338.298L393.458,279.054L396.591,279.054Z" style="fill:rgb(102,102,102);fill-rule:nonzero;"/>
        <path d="M496.851,320.598L467.839,320.598L461.248,338.298L458.847,338.298L481.023,279.054L483.708,279.054L505.885,338.298L503.484,338.298L496.851,320.598ZM468.653,318.401L496.038,318.401L482.366,281.698L468.653,318.401Z" style="fill:rgb(102,102,102);fill-rule:nonzero;"/>
        <path d="M550.888,324.098C550.888,321.575 550.298,319.439 549.118,317.689C547.938,315.939 546.08,314.393 543.543,313.05C541.007,311.707 537.175,310.331 532.048,308.92C526.921,307.51 523.076,306.085 520.513,304.648C517.949,303.21 516.071,301.542 514.877,299.643C513.684,297.744 513.087,295.438 513.087,292.725C513.087,288.412 514.904,284.92 518.539,282.248C522.174,279.576 526.908,278.24 532.74,278.24C536.538,278.24 539.949,278.979 542.974,280.457C545.998,281.936 548.338,284.011 549.993,286.683C551.647,289.355 552.475,292.373 552.475,295.737L550.277,295.737C550.277,291.315 548.65,287.66 545.395,284.771C542.139,281.882 537.921,280.437 532.74,280.437C527.532,280.437 523.32,281.597 520.106,283.916C516.891,286.235 515.284,289.145 515.284,292.644C515.284,296.198 516.681,299.06 519.475,301.23C522.269,303.4 526.881,305.319 533.31,306.987C539.739,308.656 544.445,310.588 547.429,312.786C551.227,315.58 553.126,319.323 553.126,324.016C553.126,327 552.285,329.638 550.603,331.93C548.921,334.223 546.534,335.993 543.442,337.24C540.349,338.488 536.877,339.112 533.025,339.112C528.739,339.112 524.887,338.4 521.469,336.976C518.051,335.552 515.481,333.524 513.758,330.893C512.036,328.262 511.174,325.155 511.174,321.575L513.372,321.575C513.372,326.43 515.189,330.201 518.824,332.887C522.459,335.572 527.193,336.915 533.025,336.915C538.206,336.915 542.479,335.728 545.842,333.355C549.206,330.981 550.888,327.895 550.888,324.098Z" style="fill:rgb(102,102,102);fill-rule:nonzero;"/>
        <path d="M595.891,320.598L566.879,320.598L560.287,338.298L557.887,338.298L580.063,279.054L582.748,279.054L604.924,338.298L602.524,338.298L595.891,320.598ZM567.693,318.401L595.077,318.401L581.405,281.698L567.693,318.401Z" style="fill:rgb(102,102,102);fill-rule:nonzero;"/>
        <path d="M657.13,338.298L654.932,338.298L616.684,282.797L616.684,338.298L614.446,338.298L614.446,279.054L616.684,279.054L654.932,334.433L654.932,279.054L657.13,279.054L657.13,338.298Z" style="fill:rgb(102,102,102);fill-rule:nonzero;"/>
        <rect x="675.033" y="279.054" width="2.197" height="59.245" style="fill:rgb(102,102,102);fill-rule:nonzero;"/>
    </g>
</svg>
