<?xml version="1.0" encoding="UTF-8" standalone="no"?>
<!DOCTYPE svg PUBLIC "-//W3C//DTD SVG 1.1//EN" "http://www.w3.org/Graphics/SVG/1.1/DTD/svg11.dtd">
<svg width="100%" height="100%" viewBox="0 0 800 800" version="1.1" xmlns="http://www.w3.org/2000/svg" xmlns:xlink="http://www.w3.org/1999/xlink" xml:space="preserve" style="fill-rule:evenodd;clip-rule:evenodd;stroke-linejoin:round;stroke-miterlimit:1.41421;">
    <g transform="matrix(1.26254,0,0,1.26254,-72.1906,-176.982)">
        <path d="M673,247.597C673,198.147 632.853,158 583.403,158L164.597,158C115.147,158 75,198.147 75,247.597L75,666.403C75,715.853 115.147,756 164.597,756L583.403,756C632.853,756 673,715.853 673,666.403L673,247.597Z" style="fill:rgb(227,239,255);"/>
    </g>
    <rect x="22.5" y="215" width="755" height="369" style="fill:rgb(62,148,209);"/>
    <g transform="matrix(1.12182,0,0,1.12182,-255.423,-254.862)">
        <circle cx="584.25" cy="583.75" r="184.25" style="fill:white;"/>
    </g>
    <circle cx="400" cy="399.5" r="145.5" style="fill:rgb(0,35,73);"/>
    <g transform="matrix(1.36641,0,0,1.36641,-146.565,-146.382)">
        <circle cx="400" cy="399.5" r="65.5" style="fill:rgb(2,54,110);"/>
    </g>
    <g transform="matrix(1.27273,0,0,1.27273,-109.091,-109.091)">
        <circle cx="400" cy="400" r="44" style="fill:rgb(0,35,73);"/>
    </g>
    <circle cx="400" cy="400" r="30" style="fill:rgb(13,13,13);"/>
    <g transform="matrix(0.58311,0,0,0.58311,169.532,168.163)">
        <circle cx="400" cy="400" r="9" style="fill:rgb(255,247,252);"/>
    </g>
    <g transform="matrix(0.336836,0,0,0.336836,251.4,248.465)">
        <circle cx="400" cy="400" r="9" style="fill:rgb(255,247,252);"/>
    </g>
    <g transform="matrix(1,0,0,1,11,4.5)">
        <circle cx="126.5" cy="115.5" r="25.5" style="fill:rgb(239,88,112);"/>
    </g>
    <path d="M666,86.4C666,78.452 659.548,72 651.6,72L584.4,72C576.452,72 570,78.452 570,86.4L570,153.6C570,161.548 576.452,168 584.4,168L651.6,168C659.548,168 666,161.548 666,153.6L666,86.4Z" style="fill:rgb(164,208,255);"/>
    <g transform="matrix(1.44737,0,0,1,-264.895,1)">
        <path d="M629,103.5C629,101.016 627.607,99 625.891,99L594.109,99C592.393,99 591,101.016 591,103.5C591,105.984 592.393,108 594.109,108L625.891,108C627.607,108 629,105.984 629,103.5Z" style="fill:rgb(227,239,255);"/>
    </g>
    <g transform="matrix(1.44737,0,0,1,-264.895,16)">
        <path d="M629,103.5C629,101.016 627.607,99 625.891,99L594.109,99C592.393,99 591,101.016 591,103.5C591,105.984 592.393,108 594.109,108L625.891,108C627.607,108 629,105.984 629,103.5Z" style="fill:rgb(227,239,255);"/>
    </g>
    <g transform="matrix(1.44737,0,0,1,-264.895,32)">
        <path d="M629,103.5C629,101.016 627.607,99 625.891,99L594.109,99C592.393,99 591,101.016 591,103.5C591,105.984 592.393,108 594.109,108L625.891,108C627.607,108 629,105.984 629,103.5Z" style="fill:rgb(227,239,255);"/>
    </g>
</svg>
